<svg width="44" height="44" viewBox="0 0 44 44" fill="none" xmlns="http://www.w3.org/2000/svg">
<path d="M42.1265 33.892C41.6296 33.892 41.153 33.7009 40.8017 33.3607C40.4503 33.0205 40.2529 32.5591 40.2529 32.078V11.901C40.2529 11.4199 40.4503 10.9584 40.8017 10.6182C41.153 10.278 41.6296 10.0869 42.1265 10.0869C42.6233 10.0869 43.0999 10.278 43.4512 10.6182C43.8026 10.9584 44 11.4199 44 11.901V32.078C44 32.5591 43.8026 33.0205 43.4512 33.3607C43.0999 33.7009 42.6233 33.892 42.1265 33.892Z" fill="#231F20"/>
<path d="M27.335 43.9912C26.8381 43.9912 26.3615 43.8 26.0102 43.4598C25.6588 43.1196 25.4614 42.6582 25.4614 42.1771V1.81407C25.4614 1.33295 25.6588 0.871532 26.0102 0.531328C26.3615 0.191125 26.8381 0 27.335 0C27.8319 0 28.3084 0.191125 28.6598 0.531328C29.0111 0.871532 29.2085 1.33295 29.2085 1.81407V42.1771C29.2085 42.6582 29.0111 43.1196 28.6598 43.4598C28.3084 43.8 27.8319 43.9912 27.335 43.9912Z" fill="#231F20"/>
<path d="M42.1265 24.2404H27.335C26.8381 24.2404 26.3615 24.0493 26.0102 23.7091C25.6588 23.3689 25.4614 22.9075 25.4614 22.4264C25.4614 21.9453 25.6588 21.4838 26.0102 21.1436C26.3615 20.8034 26.8381 20.6123 27.335 20.6123H42.1265C42.6234 20.6123 43.0999 20.8034 43.4513 21.1436C43.8026 21.4838 44 21.9453 44 22.4264C44 22.9075 43.8026 23.3689 43.4513 23.7091C43.0999 24.0493 42.6234 24.2404 42.1265 24.2404Z" fill="#231F20"/>
<path d="M19.9156 43.992C19.5866 43.9914 19.2635 43.9069 18.9789 43.7471L2.87119 34.7312C2.00176 34.2436 1.27928 33.5441 0.775574 32.7023C0.271869 31.8606 0.00448405 30.9058 0 29.9329L0 14.0598C0.00344042 13.085 0.270257 12.1279 0.773944 11.2838C1.27763 10.4397 2.00065 9.73784 2.87119 9.24803L18.9836 0.245716C19.4117 0.0288385 19.9099 -0.0194634 20.374 0.1109C20.8381 0.241264 21.2322 0.54021 21.474 0.945293C21.7159 1.35038 21.7867 1.83027 21.6717 2.28472C21.5568 2.73917 21.2649 3.13304 20.8571 3.38406L4.74472 12.3909C4.44329 12.5615 4.19284 12.805 4.01794 13.0976C3.84303 13.3902 3.74969 13.7218 3.74706 14.0598V20.6132H16.6651C17.162 20.6132 17.6385 20.8043 17.9899 21.1445C18.3412 21.4847 18.5386 21.9461 18.5386 22.4272C18.5386 22.9084 18.3412 23.3698 17.9899 23.71C17.6385 24.0502 17.162 24.2413 16.6651 24.2413H3.74706V29.9329C3.74795 30.272 3.84051 30.6048 4.01555 30.8984C4.19058 31.192 4.44198 31.4361 4.74472 31.6064L20.8571 40.6133C21.2156 40.8124 21.4961 41.1206 21.6549 41.4901C21.8137 41.8596 21.8418 42.2696 21.7349 42.6562C21.628 43.0427 21.3921 43.3842 21.0639 43.6275C20.7357 43.8707 20.3336 44.0021 19.9203 44.001L19.9156 43.992Z" fill="#231F20"/>
</svg>
